<svg width="20" height="13" viewBox="0 0 20 13" fill="none" xmlns="http://www.w3.org/2000/svg">
<g clip-path="url(#clip0)">
<path d="M19.9977 2.63184C19.9977 2.82621 19.9977 2.99172 19.9977 3.15819C19.9977 5.9949 19.9987 8.83065 19.9977 11.6674C19.9977 12.3342 19.5909 12.8375 18.9395 12.9799C18.8592 12.9972 18.7742 13.0001 18.692 13.0001C12.901 13.001 7.10994 13.001 1.31889 13.0001C0.596946 13.0001 0.00836953 12.441 0.0064366 11.7347C-0.000328644 8.72192 0.00257075 5.70911 0.00257075 2.69631C0.00257075 2.67706 0.00547014 2.65686 0.00933599 2.61548C0.202629 2.73191 0.383357 2.83968 0.56312 2.94938C3.5234 4.75745 6.48464 6.56455 9.44395 8.37358C9.81894 8.6026 10.1833 8.6026 10.5583 8.37358C13.0141 6.87536 15.4718 5.38002 17.9295 3.88469C18.5857 3.48535 19.2429 3.08602 19.9001 2.68765C19.9243 2.67225 19.9504 2.65782 19.9977 2.63184Z" fill="#75B051"/>
<path d="M9.99809 -0.00122428C12.883 -0.00122428 15.7679 -0.00218653 18.6528 -0.000262031C19.4288 0.00070022 19.9923 0.565541 20 1.33245C20.001 1.4383 19.9681 1.49604 19.8763 1.55185C18.2691 2.52661 16.6638 3.50522 15.0585 4.48286C13.4136 5.48457 11.7677 6.48531 10.1247 7.4899C10.0329 7.54667 9.96909 7.54571 9.87631 7.48893C7.48528 6.02439 5.09232 4.56369 2.69935 3.103C1.83533 2.57568 0.972282 2.04548 0.107297 1.52106C0.0309461 1.47487 0.000985744 1.42868 1.928e-05 1.33823C-0.00384657 0.591522 0.574099 0.00070022 1.32794 -0.000262031C4.21767 -0.00218653 7.10836 -0.00122428 9.99809 -0.00122428Z" fill="#75B051"/>
</g>
<defs>
<clipPath id="clip0">
<rect width="20" height="13" fill="white"/>
</clipPath>
</defs>
</svg>
