<svg width="96" height="96" viewBox="0 0 96 96" fill="none" xmlns="http://www.w3.org/2000/svg">
<circle cx="47.9004" cy="47.9004" r="47.9004" fill="white"/>
<circle cx="47.9004" cy="47.9004" r="47.9004" stroke="#C4C4C4"/>
<path fill-rule="evenodd" clip-rule="evenodd" d="M59.8757 24.9502C59.8757 24.3979 59.4279 23.9502 58.8757 23.9502H16.2412C15.6889 23.9502 15.2412 24.3979 15.2412 24.9502V51.255C15.2412 51.8073 15.6889 52.255 16.2412 52.255H22.0874C22.6397 52.255 23.0874 52.7027 23.0874 53.255V59.4539C23.0874 60.3448 24.1646 60.7909 24.7945 60.161L32.4076 52.5479C32.5952 52.3603 32.8495 52.255 33.1147 52.255H58.8757C59.4279 52.255 59.8757 51.8073 59.8757 51.255V24.9502Z" fill="white"/>
<path d="M32.4076 52.5479L31.347 51.4872L32.4076 52.5479ZM24.7945 60.161L23.7339 59.1003L24.7945 60.161ZM16.2412 25.4502H58.8757V22.4502H16.2412V25.4502ZM16.7412 51.255V24.9502H13.7412V51.255H16.7412ZM22.0874 50.755H16.2412V53.755H22.0874V50.755ZM24.5874 59.4539V53.255H21.5874V59.4539H24.5874ZM31.347 51.4872L23.7339 59.1003L25.8552 61.2216L33.4683 53.6085L31.347 51.4872ZM58.8757 50.755H33.1147V53.755H58.8757V50.755ZM58.3757 24.9502V51.255H61.3757V24.9502H58.3757ZM58.8757 53.755C60.2564 53.755 61.3757 52.6357 61.3757 51.255H58.3757C58.3757 50.9788 58.5995 50.755 58.8757 50.755V53.755ZM33.4683 53.6085C33.3745 53.7023 33.2473 53.755 33.1147 53.755V50.755C32.4517 50.755 31.8158 51.0184 31.347 51.4872L33.4683 53.6085ZM21.5874 59.4539C21.5874 61.6811 24.2803 62.7965 25.8552 61.2216L23.7339 59.1003C24.0489 58.7853 24.5874 59.0084 24.5874 59.4539H21.5874ZM22.0874 53.755C21.8113 53.755 21.5874 53.5311 21.5874 53.255H24.5874C24.5874 51.8743 23.4681 50.755 22.0874 50.755V53.755ZM13.7412 51.255C13.7412 52.6357 14.8605 53.755 16.2412 53.755V50.755C16.5174 50.755 16.7412 50.9788 16.7412 51.255H13.7412ZM58.8757 25.4502C58.5995 25.4502 58.3757 25.2263 58.3757 24.9502H61.3757C61.3757 23.5695 60.2564 22.4502 58.8757 22.4502V25.4502ZM16.2412 22.4502C14.8605 22.4502 13.7412 23.5695 13.7412 24.9502H16.7412C16.7412 25.2263 16.5174 25.4502 16.2412 25.4502V22.4502Z" fill="#BBD782"/>
<path fill-rule="evenodd" clip-rule="evenodd" d="M37.4717 39.3327C37.4717 38.7804 37.9194 38.3327 38.4717 38.3327H80.2734C80.8257 38.3327 81.2734 38.7804 81.2734 39.3327V66.0981C81.2734 66.6503 80.8257 67.0981 80.2734 67.0981H74.4273C73.875 67.0981 73.4273 67.5458 73.4273 68.0981V74.4903C73.4273 75.3812 72.3501 75.8274 71.7202 75.1974L63.9137 67.3909C63.7262 67.2034 63.4718 67.0981 63.2066 67.0981H38.4717C37.9194 67.0981 37.4717 66.6503 37.4717 66.098V39.3327Z" fill="white"/>
<path d="M63.9137 67.3909L64.9744 66.3303L63.9137 67.3909ZM71.7202 75.1974L72.7808 74.1368L71.7202 75.1974ZM80.2734 39.8327H38.4717V36.8327H80.2734V39.8327ZM79.7734 66.0981V39.3327H82.7734V66.0981H79.7734ZM74.4273 65.5981H80.2734V68.5981H74.4273V65.5981ZM71.9273 74.4903V68.0981H74.9273V74.4903H71.9273ZM64.9744 66.3303L72.7808 74.1368L70.6595 76.2581L62.853 68.4516L64.9744 66.3303ZM38.4717 65.5981H63.2066V68.5981H38.4717V65.5981ZM38.9717 39.3327V66.098H35.9717V39.3327H38.9717ZM38.4717 68.5981C37.0909 68.5981 35.9717 67.4788 35.9717 66.098H38.9717C38.9717 65.8219 38.7478 65.5981 38.4717 65.5981V68.5981ZM62.853 68.4516C62.9468 68.5454 63.074 68.5981 63.2066 68.5981V65.5981C63.8696 65.5981 64.5055 65.8614 64.9744 66.3303L62.853 68.4516ZM74.9273 74.4903C74.9273 76.7176 72.2344 77.833 70.6595 76.2581L72.7808 74.1368C72.4658 73.8218 71.9273 74.0449 71.9273 74.4903H74.9273ZM74.4273 68.5981C74.7034 68.5981 74.9273 68.3742 74.9273 68.0981H71.9273C71.9273 66.7173 73.0466 65.5981 74.4273 65.5981V68.5981ZM82.7734 66.0981C82.7734 67.4788 81.6542 68.5981 80.2734 68.5981V65.5981C79.9973 65.5981 79.7734 65.8219 79.7734 66.0981H82.7734ZM38.4717 39.8327C38.7478 39.8327 38.9717 39.6088 38.9717 39.3327H35.9717C35.9717 37.952 37.0909 36.8327 38.4717 36.8327V39.8327ZM80.2734 36.8327C81.6542 36.8327 82.7734 37.952 82.7734 39.3327H79.7734C79.7734 39.6088 79.9973 39.8327 80.2734 39.8327V36.8327Z" fill="#BBD782"/>
</svg>
