<svg width="110" height="17" viewBox="0 0 110 17" fill="none" xmlns="http://www.w3.org/2000/svg">
<path d="M8.90659 9.67509C8.75146 10.1124 8.64195 10.5497 8.57807 10.9597C8.56895 10.9961 8.56895 11.0325 8.55982 11.0781C8.5507 11.0325 8.54157 10.9779 8.53244 10.9323C8.44119 10.4859 8.31343 10.0395 8.14917 9.58398L4.68144 0.254933H0L0.37415 1.83103V16.6992H3.24872V5.89427L7.26398 16.7265H9.22599L13.1409 5.89427V16.7083H16.5904V0.254933H12.3196L8.90659 9.67509Z" fill="#2076A6"/>
<path d="M27.0483 0.254933H24.3197L18.598 16.3986L18.4793 16.7265H21.5455L23.1425 12.144H27.5593L29.1381 16.7265H32.8978L27.103 0.41892L27.0483 0.254933ZM26.665 9.5111H24.0368L25.3418 5.15633L26.665 9.5111Z" fill="#2076A6"/>
<path d="M44.3045 8.2812C44.8429 7.86212 45.2901 7.35193 45.6278 6.75976C45.9654 6.15847 46.1388 5.52074 46.1388 4.87391C46.1388 3.71688 45.8741 2.78762 45.3449 2.11345C44.8247 1.4484 44.122 0.956434 43.2642 0.674011C42.4247 0.400699 41.4939 0.254933 40.4992 0.254933H34.6953L35.0877 1.83103V16.7174H38.5737V9.6022H39.395L43.757 16.599L43.83 16.7174H47.8361L42.8718 9.04647C43.3737 8.89159 43.8574 8.62739 44.3045 8.2812ZM40.2071 2.93339C40.6269 2.93339 41.0102 3.00627 41.357 3.15204C41.6946 3.29781 41.9593 3.50735 42.1691 3.78977C42.3699 4.07219 42.4703 4.4275 42.4703 4.84657C42.4703 5.40231 42.3517 5.8305 42.1235 6.14025C41.8954 6.45 41.576 6.65954 41.1745 6.78709C40.7455 6.91463 40.2528 6.98752 39.7144 6.98752H38.5645V2.93339H40.2071Z" fill="#2076A6"/>
<path d="M57.5369 8.24491C57.0624 7.86227 56.5331 7.5343 55.9673 7.27009L54.3885 6.50482C53.9505 6.28617 53.5672 6.06752 53.2205 5.84887C52.8919 5.63933 52.6273 5.39335 52.4357 5.12004C52.2532 4.85584 52.1619 4.53697 52.1619 4.17256C52.1619 3.63504 52.3535 3.25241 52.7459 2.99732C53.5581 2.46891 54.5528 2.47802 55.6844 2.86066C56.2045 3.04287 56.6517 3.29796 57.0167 3.61682L57.2084 3.78992L59.0517 1.50321L58.8327 1.34833C58.1939 0.920146 57.4548 0.583061 56.6517 0.34619C54.9452 -0.145771 53.0653 -0.12755 51.4501 0.491957C50.5832 0.829042 49.8623 1.34833 49.3056 2.04983C48.7489 2.76045 48.466 3.68971 48.466 4.80118C48.466 5.50268 48.5938 6.12218 48.8402 6.64148C49.0866 7.16077 49.4151 7.59807 49.8166 7.95337C50.1999 8.29957 50.6471 8.60932 51.1307 8.87352C51.5961 9.12862 52.0798 9.36549 52.5634 9.59325C53.0836 9.83012 53.5855 10.0852 54.0509 10.3494C54.4889 10.5954 54.8448 10.8778 55.1186 11.1967C55.3741 11.4973 55.5019 11.8708 55.5019 12.3355C55.5019 12.791 55.3924 13.1554 55.1642 13.4652C54.927 13.7749 54.6167 14.0118 54.2517 14.1667C53.2844 14.5766 52.1345 14.4491 51.0851 13.9845C50.4463 13.702 49.8714 13.3285 49.3786 12.8821L49.1231 12.6452L47.8729 15.597L48.0645 15.7063C48.8493 16.1618 49.7071 16.4989 50.6197 16.6994C51.514 16.8998 52.4265 17 53.33 17C54.3521 17 55.3194 16.7996 56.1954 16.4078C57.0806 16.0161 57.8107 15.4239 58.3582 14.6404C58.9149 13.8569 59.1886 12.9003 59.1886 11.7889C59.1886 10.9689 59.0335 10.2583 58.7232 9.68435C58.4403 9.1195 58.0297 8.63665 57.5369 8.24491Z" fill="#2076A6"/>
<path d="M61.4242 0.236727L61.6159 0.601143C61.6341 0.646695 61.6524 0.746909 61.6889 0.920007C61.7345 1.14777 61.7801 1.35731 61.8349 1.56685C61.8714 1.73083 61.8988 1.83105 61.8988 1.83105V16.7174H65.4121V0.254948H61.844L61.4242 0.236727Z" fill="#2076A6"/>
<path d="M72.6127 0.254933H68.7343L69.072 1.84014V16.7265H78.882V14.0754H72.6127V0.254933Z" fill="#2076A6"/>
<path d="M88.6917 0.254933H85.9631L80.2413 16.3986L80.1227 16.7265H83.1889L84.7859 12.144H89.2027L90.7814 16.7265H94.5412L88.7646 0.41892L88.6917 0.254933ZM88.3084 9.5111H85.6802L86.9852 5.15633L88.3084 9.5111Z" fill="#2076A6"/>
<path d="M107.071 0.282476V9.8484C107.071 10.0488 107.08 10.2584 107.098 10.4679C106.989 10.2948 106.879 10.1217 106.76 9.95772L100.391 0.282476H96.3572L96.7314 1.85858V16.7267H99.6516V5.63028C99.6516 5.48451 99.6516 5.33875 99.6424 5.20209C99.7611 5.3843 99.8706 5.57562 99.9892 5.76694L107.253 16.8361H110V0.282476H107.071Z" fill="#2076A6"/>
</svg>
